Walking04_kinetics.mot
version=1
nRows=20
nColumns=19
inDegrees=yes
endheader
time	1_ground_force_vx	1_ground_force_vy	1_ground_force_vz	1_ground_force_px	1_ground_force_py	1_ground_force_pz	2_ground_force_vx	2_ground_force_vy	2_ground_force_vz	2_ground_force_px	2_ground_force_py	2_ground_force_pz	1_ground_torque_x	1_ground_torque_y	1_ground_torque_z	2_ground_torque_x	2_ground_torque_y	2_ground_torque_z
  0.00000000	  0.00000000	  0.00000000	  0.00000000	  0.30048871	 -0.00042294	 -0.20058549	-70.29473817	425.89969623	 15.02337351	 -0.40402145	  0.00260820	 -0.08561456	  0.00000000	  0.00000000	  0.00000000	 -0.00177263	 -1.36021862	 -0.00004494
  0.00100000	  0.00000000	  0.00000000	  0.00000000	  0.30048871	 -0.00042294	 -0.20058549	-74.37342146	419.99977301	 14.75987605	 -0.40216845	  0.00260570	 -0.08302232	  0.00000000	  0.00000000	  0.00000000	 -0.00141399	 -1.08501567	 -0.00003585
  0.00200000	  0.00000000	  0.00000000	  0.00000000	  0.30048871	 -0.00042294	 -0.20058549	-78.64342681	414.78320852	 14.50766165	 -0.40033249	  0.00260323	 -0.08055017	  0.00000000	  0.00000000	  0.00000000	 -0.00107505	 -0.82493355	 -0.00002726
  0.00300000	  0.00000000	  0.00000000	  0.00000000	  0.30048871	 -0.00042294	 -0.20058549	-83.08419280	410.46323743	 14.28298524	 -0.39858741	  0.00260088	 -0.07834464	  0.00000000	  0.00000000	  0.00000000	 -0.00077855	 -0.59741420	 -0.00001974
  0.00400000	  0.00000000	  0.00000000	  0.00000000	  0.30048871	 -0.00042294	 -0.20058549	-87.66207301	407.36705320	 14.08904030	 -0.39696096	  0.00259870	 -0.07645965	  0.00000000	  0.00000000	  0.00000000	 -0.00053276	 -0.40881377	 -0.00001351
  0.00500000	  0.00000000	  0.00000000	  0.00000000	  0.30048871	 -0.00042294	 -0.20058549	-92.32785617	405.86017754	 13.91615611	 -0.39544492	  0.00259667	 -0.07487130	  0.00000000	  0.00000000	  0.00000000	 -0.00033375	 -0.25610057	 -0.00000846
  0.00600000	  0.00000000	  0.00000000	  0.00000000	  0.30048871	 -0.00042294	 -0.20058549	-97.01901916	406.19154840	 13.74685486	 -0.39402669	  0.00259478	 -0.07353353	  0.00000000	  0.00000000	  0.00000000	 -0.00017391	 -0.13344998	 -0.00000441
  0.00700000	  0.00000000	  0.00000000	  0.00000000	  0.30048871	 -0.00042294	 -0.20058549	-101.66380587	408.38306804	 13.56275976	 -0.39271293	  0.00259303	 -0.07242277	  0.00000000	  0.00000000	  0.00000000	 -0.00004916	 -0.03771920	 -0.00000125
  0.00800000	  0.00000000	  0.00000000	  0.00000000	  0.30048871	 -0.00042294	 -0.20058549	-106.18495700	412.24969410	 13.35064901	 -0.39152518	  0.00259145	 -0.07153598	  0.00000000	  0.00000000	  0.00000000	  0.00004090	  0.03138275	  0.00000104
  0.00900000	  0.00000000	  0.00000000	  0.00000000	  0.30048871	 -0.00042294	 -0.20058549	-110.50304566	417.49655064	 13.10588550	 -0.39048080	  0.00259007	 -0.07086337	  0.00000000	  0.00000000	  0.00000000	  0.00009670	  0.07420031	  0.00000245
  0.01000000	  0.00000000	  0.00000000	  0.00000000	  0.30048871	 -0.00042294	 -0.20058549	-114.54005933	423.80239092	 12.83168239	 -0.38958178	  0.00258888	 -0.07037273	  0.00000000	  0.00000000	  0.00000000	  0.00012130	  0.09308217	  0.00000308
  0.01100000	  0.00000000	  0.00000000	  0.00000000	  0.30048871	 -0.00042294	 -0.20058549	-118.22330456	430.86275987	 12.53506181	 -0.38881657	  0.00258787	 -0.07001454	  0.00000000	  0.00000000	  0.00000000	  0.00012028	  0.09229569	  0.00000305
  0.01200000	  0.00000000	  0.00000000	  0.00000000	  0.30048871	 -0.00042294	 -0.20058549	-121.48866451	438.40135268	 12.22358573	 -0.38816793	  0.00258702	 -0.06973734	  0.00000000	  0.00000000	  0.00000000	  0.00009994	  0.07668803	  0.00000253
  0.01300000	  0.00000000	  0.00000000	  0.00000000	  0.30048871	 -0.00042294	 -0.20058549	-124.28248547	446.16111596	 11.90552032	 -0.38762038	  0.00258630	 -0.06950396	  0.00000000	  0.00000000	  0.00000000	  0.00006507	  0.04993483	  0.00000165
  0.01400000	  0.00000000	  0.00000000	  0.00000000	  0.30048871	 -0.00042294	 -0.20058549	-126.56273180	453.89826078	 11.59124494	 -0.38716393	  0.00258569	 -0.06930027	  0.00000000	  0.00000000	  0.00000000	  0.00001759	  0.01350078	  0.00000045
  0.01500000	  0.00000000	  0.00000000	  0.00000000	  0.30048871	 -0.00042294	 -0.20058549	-128.30025922	461.40527147	 11.29231920	 -0.38679140	  0.00258520	 -0.06912891	  0.00000000	  0.00000000	  0.00000000	 -0.00004234	 -0.03249171	 -0.00000107
  0.01600000	  0.00000000	  0.00000000	  0.00000000	  0.30048871	 -0.00042294	 -0.20058549	-129.48050936	468.55614251	 11.01805855	 -0.38649102	  0.00258481	 -0.06899140	  0.00000000	  0.00000000	  0.00000000	 -0.00011330	 -0.08693856	 -0.00000287
  0.01700000	  0.00000000	  0.00000000	  0.00000000	  0.30048871	 -0.00042294	 -0.20058549	-130.10538981	475.32573283	 10.77283187	 -0.38624260	  0.00258448	 -0.06887710	  0.00000000	  0.00000000	  0.00000000	 -0.00019095	 -0.14652103	 -0.00000484
  0.01800000	  0.00000000	  0.00000000	  0.00000000	  0.30048871	 -0.00042294	 -0.20058549	-130.19492727	481.75342313	 10.55627670	 -0.38602223	  0.00258419	 -0.06877034	  0.00000000	  0.00000000	  0.00000000	 -0.00026997	 -0.20716214	 -0.00000684
  0.01900000	  0.00000000	  0.00000000	  0.00000000	  0.30048871	 -0.00042294	 -0.20058549	-129.78849753	487.88799598	 10.36497396	 -0.38581002	  0.00258391	 -0.06866420	  0.00000000	  0.00000000	  0.00000000	 -0.00034717	 -0.26639731	 -0.00000880
